<svg viewBox="0 0 32.0001 32" xmlns="http://www.w3.org/2000/svg" xmlns:xlink="http://www.w3.org/1999/xlink" width="32.000061" height="32.000000" fill="none" customFrame="#000000">
	<path id="Vector" d="M29.0909 0L2.90911 0C1.30541 0 0 1.30466 0 2.90911L0 29.0909C0 30.6953 1.30541 32.0001 2.90911 32.0001L29.0909 32.0001C30.6946 32.0001 32.0001 30.6954 32.0001 29.0909L32.0001 2.90911C32 1.30466 30.6946 0 29.0909 0ZM30.5455 29.0909C30.5455 29.8928 29.8934 30.5455 29.0909 30.5455L2.90911 30.5455C2.10655 30.5455 1.45459 29.8928 1.45459 29.0909L1.45459 2.90911C1.45459 2.1073 2.10661 1.45459 2.90911 1.45459L29.0909 1.45459C29.8935 1.45459 30.5455 2.1073 30.5455 2.90911L30.5455 29.0909Z" fill="rgb(96,101,102)" fill-rule="nonzero" />
</svg>
