<svg viewBox="0 0 24 26" xmlns="http://www.w3.org/2000/svg" xmlns:xlink="http://www.w3.org/1999/xlink" width="24.000000" height="26.000000" fill="none">
	<rect id="alert 1" width="24.000000" height="26.000000" x="0.000000" y="0.000000" fill="rgb(255,255,255)" fill-opacity="0" />
	<g id="Group">
		<path id="Vector" d="M10.8775 16.6437C10.8869 17.2578 11.3885 17.75 12.0025 17.75C12.6166 17.75 13.1181 17.2531 13.1275 16.6437L13.5025 6.5375C13.526 6.15313 13.3853 5.77812 13.1135 5.4875C12.8228 5.17812 12.4197 5 12.0025 5C11.5853 5 11.1822 5.17812 10.8916 5.4875C10.6197 5.77812 10.4791 6.15313 10.5025 6.5375L10.8775 16.6437Z" fill="rgb(253,176.18,86)" fill-rule="nonzero" />
		<path id="Vector" d="M12 23C12.8284 23 13.5 22.3284 13.5 21.5C13.5 20.6716 12.8284 20 12 20C11.1716 20 10.5 20.6716 10.5 21.5C10.5 22.3284 11.1716 23 12 23Z" fill="rgb(253,176.18,86)" fill-rule="evenodd" />
	</g>
</svg>
